<?xml version="1.0" encoding="utf-8"?>
<!-- Generator: Adobe Illustrator 21.0.0, SVG Export Plug-In . SVG Version: 6.00 Build 0)  -->
<svg version="1.1" id="Layer_1" xmlns="http://www.w3.org/2000/svg" xmlns:xlink="http://www.w3.org/1999/xlink" x="0px" y="0px"
	 viewBox="0 0 93.1 48.1" style="enable-background:new 0 0 93.1 48.1;" xml:space="preserve">
<style type="text/css">
	.st0{fill:#FFFFFF;}
</style>
<path class="st0" d="M64.6,5c0.6,0.2,1.1-0.4,1.7-0.4c4.7,5.8,9.3,13.1,16.4,16.1c0.1,1.2,0,2.6,0.3,3.6c-0.4,1.9-1.2,2.5-2.5,4.2
	c-3.7,0.5-7.3,4.3-10.9,6.7c-3.5,2.4-7.5,4.4-10.3,8.4c-0.8-0.2-1.4,1.1-2.2,0.8c-0.4-0.9-0.3-2.7,0.3-3.7c0.4-0.7,1.3-0.9,2.2-2
	c0.4-0.5,0.5-1.4,0.7-1.7c1.3-1.5,4.5-3.5,5.9-5c-9.6,0.1-19,1-28.1,1.6c0.2-0.4,0.4-0.4,0.6-0.9c-0.5-0.5-0.6,1-1,1
	c-4.4-0.1-8.7,0-12.9,1.4c-1.3,0.4-3,1.6-3.8,0.1c0.6-2.2,1.1-2.7,2.5-4.2c5-1.2,10.1-2,15.4-1.8c-7.1-0.2-14.5-0.3-21.6,2.4
	c-0.8-0.2-0.5,0.1-0.5-0.5c-1,0.4-2.4,1.5-2.9-0.1c2.4-6.5,7.3-4.4,11-6.4c12.7-1.1,24.8,0.6,36.7-0.2c3.6-0.2,7.5-1.8,10.9-1.4
	c0.5,0.3,0.3,1.1,0.2,1.8c1-0.1,2,0.4,2.9,0.1c-4.8-4.2-8.9-10.5-12.5-14.4C62.9,8.9,63.5,6.6,64.6,5z"/>
</svg>
